<?xml version="1.0"?>
<svg xmlns="http://www.w3.org/2000/svg" viewBox="0 0 1600 380" width="1600" height="380">
  <title>Dragée Paris — Lockup horizontal</title>
  <rect width="1600" height="380" fill="#000000"></rect>
  <circle cx="200" cy="190" r="136" fill="none" stroke="#FFFFFF" stroke-width="2.2"></circle>
  <circle cx="200" cy="190" r="122" fill="none" stroke="#FFFFFF" stroke-width="0.8"></circle>
  <ellipse cx="200" cy="157" rx="25.2" ry="37.2" transform="rotate(0 200 157)" fill="none" stroke="#FFFFFF" stroke-width="1.6"></ellipse>
  <ellipse cx="231.38" cy="179.8" rx="25.2" ry="37.2" transform="rotate(72 231.38 179.8)" fill="none" stroke="#FFFFFF" stroke-width="1.6"></ellipse>
  <ellipse cx="219.4" cy="216.7" rx="25.2" ry="37.2" transform="rotate(144 219.4 216.7)" fill="none" stroke="#FFFFFF" stroke-width="1.6"></ellipse>
  <ellipse cx="180.6" cy="216.7" rx="25.2" ry="37.2" transform="rotate(216 180.6 216.7)" fill="none" stroke="#FFFFFF" stroke-width="1.6"></ellipse>
  <ellipse cx="168.62" cy="179.8" rx="25.2" ry="37.2" transform="rotate(288 168.62 179.8)" fill="none" stroke="#FFFFFF" stroke-width="1.6"></ellipse>
  <line x1="200" y1="190" x2="216.8" y2="190" stroke="#FFFFFF" stroke-width="0.96" stroke-linecap="round"></line>
  <circle cx="216.8" cy="190" r="1.44" fill="#FFFFFF"></circle>
  <line x1="200" y1="190" x2="210.47" y2="203.13" stroke="#FFFFFF" stroke-width="0.96" stroke-linecap="round"></line>
  <circle cx="210.47" cy="203.13" r="1.44" fill="#FFFFFF"></circle>
  <line x1="200" y1="190" x2="196.26" y2="206.38" stroke="#FFFFFF" stroke-width="0.96" stroke-linecap="round"></line>
  <circle cx="196.26" cy="206.38" r="1.44" fill="#FFFFFF"></circle>
  <line x1="200" y1="190" x2="184.86" y2="197.29" stroke="#FFFFFF" stroke-width="0.96" stroke-linecap="round"></line>
  <circle cx="184.86" cy="197.29" r="1.44" fill="#FFFFFF"></circle>
  <line x1="200" y1="190" x2="184.86" y2="182.71" stroke="#FFFFFF" stroke-width="0.96" stroke-linecap="round"></line>
  <circle cx="184.86" cy="182.71" r="1.44" fill="#FFFFFF"></circle>
  <line x1="200" y1="190" x2="196.26" y2="173.62" stroke="#FFFFFF" stroke-width="0.96" stroke-linecap="round"></line>
  <circle cx="196.26" cy="173.62" r="1.44" fill="#FFFFFF"></circle>
  <line x1="200" y1="190" x2="210.47" y2="176.87" stroke="#FFFFFF" stroke-width="0.96" stroke-linecap="round"></line>
  <circle cx="210.47" cy="176.87" r="1.44" fill="#FFFFFF"></circle>
  <circle cx="200" cy="190" r="6.00" fill="#FFFFFF"></circle>
  <line x1="400" y1="90" x2="400" y2="290" stroke="#FFFFFF" stroke-width="1" opacity="0.45"></line>
  <text x="460" y="240" fill="#FFFFFF" font-family="Cormorant Garamond, EB Garamond, Garamond, serif" font-size="180" font-weight="500" letter-spacing="2">Dragée <tspan font-style="italic">Paris</tspan></text>
</svg>