<?xml version="1.0"?>
<svg xmlns="http://www.w3.org/2000/svg" viewBox="0 0 400 400" width="400" height="400">
  <title>Dragée Paris — Symbole</title>
  
  <circle cx="200" cy="200" r="186" fill="none" stroke="#FFFFFF" stroke-width="2.2"></circle>
  <circle cx="200" cy="200" r="172" fill="none" stroke="#FFFFFF" stroke-width="0.8"></circle>
  <ellipse cx="200" cy="156" rx="33.6" ry="49.6" transform="rotate(0 200 156)" fill="none" stroke="#FFFFFF" stroke-width="1.6"></ellipse>
  <ellipse cx="241.85" cy="186.4" rx="33.6" ry="49.6" transform="rotate(72 241.85 186.4)" fill="none" stroke="#FFFFFF" stroke-width="1.6"></ellipse>
  <ellipse cx="225.86" cy="235.6" rx="33.6" ry="49.6" transform="rotate(144 225.86 235.6)" fill="none" stroke="#FFFFFF" stroke-width="1.6"></ellipse>
  <ellipse cx="174.14" cy="235.6" rx="33.6" ry="49.6" transform="rotate(216 174.14 235.6)" fill="none" stroke="#FFFFFF" stroke-width="1.6"></ellipse>
  <ellipse cx="158.15" cy="186.4" rx="33.6" ry="49.6" transform="rotate(288 158.15 186.4)" fill="none" stroke="#FFFFFF" stroke-width="1.6"></ellipse>
  <line x1="200" y1="200" x2="222.4" y2="200" stroke="#FFFFFF" stroke-width="0.96" stroke-linecap="round"></line>
  <circle cx="222.4" cy="200" r="1.44" fill="#FFFFFF"></circle>
  <line x1="200" y1="200" x2="213.97" y2="217.51" stroke="#FFFFFF" stroke-width="0.96" stroke-linecap="round"></line>
  <circle cx="213.97" cy="217.51" r="1.44" fill="#FFFFFF"></circle>
  <line x1="200" y1="200" x2="195.02" y2="221.84" stroke="#FFFFFF" stroke-width="0.96" stroke-linecap="round"></line>
  <circle cx="195.02" cy="221.84" r="1.44" fill="#FFFFFF"></circle>
  <line x1="200" y1="200" x2="179.82" y2="209.72" stroke="#FFFFFF" stroke-width="0.96" stroke-linecap="round"></line>
  <circle cx="179.82" cy="209.72" r="1.44" fill="#FFFFFF"></circle>
  <line x1="200" y1="200" x2="179.82" y2="190.28" stroke="#FFFFFF" stroke-width="0.96" stroke-linecap="round"></line>
  <circle cx="179.82" cy="190.28" r="1.44" fill="#FFFFFF"></circle>
  <line x1="200" y1="200" x2="195.02" y2="178.16" stroke="#FFFFFF" stroke-width="0.96" stroke-linecap="round"></line>
  <circle cx="195.02" cy="178.16" r="1.44" fill="#FFFFFF"></circle>
  <line x1="200" y1="200" x2="213.97" y2="182.49" stroke="#FFFFFF" stroke-width="0.96" stroke-linecap="round"></line>
  <circle cx="213.97" cy="182.49" r="1.44" fill="#FFFFFF"></circle>
  <circle cx="200" cy="200" r="8.00" fill="#FFFFFF"></circle>
</svg>